<!-- Generated by IcoMoon.io -->
<svg version="1.1" xmlns="http://www.w3.org/2000/svg" width="37" height="32" viewBox="0 0 37 32">
<title>regular-two</title>
<path d="M15.647 2.683c0.211 0 0.437 0.019 0.662 0.039 0.022 0.002 0.044 0.004 0.066 0.006 1.090 0.077 2.173 0.24 3.238 0.488v-2.618c-1.096-0.275-2.215-0.453-3.342-0.532-0.428-0.033-0.884-0.053-1.351-0.065h-0.391c-2.263 0.009-4.516 0.299-6.707 0.865-2.496 0.623-4.892 1.597-7.117 2.895v25.963c2.142-1.164 4.421-2.052 6.784-2.643 1.866-0.476 3.773-0.769 5.694-0.874h0.076c0.321-0.016 0.643-0.026 0.974-0.028v-2.66c-2.497 0.032-4.982 0.362-7.401 0.983-0.895 0.233-1.76 0.484-2.572 0.763l-0.925 0.314v-20.243l0.396-0.191c3.018-1.431 6.283-2.264 9.615-2.453 0.028-0.002 0.056-0.002 0.083 0 0.368-0.019 0.738-0.028 1.101-0.028h0.416c0.192 0.005 0.384 0.009 0.576 0.021h0.125zM20.254 5.359c0.58 0.044 1.182 0.065 1.79 0.065 2.379-0.009 4.747-0.312 7.052-0.904 2.361-0.594 4.64-1.483 6.781-2.646v25.5c-2.226 1.297-4.622 2.271-7.119 2.895-2.192 0.564-4.445 0.853-6.707 0.863-1.714 0.014-3.424-0.188-5.088-0.6v-25.665c0.393 0.091 0.798 0.174 1.21 0.244 0.675 0.114 1.388 0.198 2.082 0.249zM33.232 5.557l-0.925 0.312c-0.851 0.286-1.709 0.542-2.572 0.77-2.512 0.645-5.093 0.977-7.686 0.986-0.604 0-1.159-0.016-1.695-0.051l-0.738-0.049v20.825l0.634 0.056c0.588 0.051 1.194 0.077 1.804 0.077 2.042-0.009 4.075-0.272 6.053-0.783 1.628-0.409 3.213-0.978 4.73-1.7l0.396-0.191v-20.25z"></path>
</svg>
